<svg id="Grup_1" data-name="Grup 1" xmlns="http://www.w3.org/2000/svg" width="171.12" height="192.47" viewBox="0 0 171.12 192.47">
  <defs>
    <style>
      .cls-1, .cls-2 {
        fill: none;
        fill-rule: evenodd;
      }

      .cls-1 {
        stroke: #3b9671;
        stroke-width: 6.818px;
      }

      .cls-2 {
        stroke: #fff;
        stroke-linecap: round;
        stroke-linejoin: round;
        stroke-width: 3.409px;
      }
    </style>
  </defs>
  <path id="Layer" class="cls-1" d="M2699.51,3630.72l1.85-1.29c5.81-4.03,8.71-6.04,11.3-8.21a77.407,77.407,0,0,0,26.73-46.16c0.58-3.33.88-6.85,1.48-13.88l0.31-3.64a186.649,186.649,0,0,0-.29-34.98l-0.37-3.6a59.33,59.33,0,0,0-32.91-47.19,108.88,108.88,0,0,0-95.79,0,59.319,59.319,0,0,0-32.9,47.19l-0.37,3.6a186.65,186.65,0,0,0-.3,34.98l0.32,3.64c0.6,7.03.9,10.55,1.48,13.88a77.343,77.343,0,0,0,26.72,46.16c2.6,2.17,5.5,4.18,11.3,8.21l1.86,1.29c7.88,5.47,11.83,8.22,15.78,10.12a55.384,55.384,0,0,0,48.02,0C2687.68,3638.94,2691.62,3636.2,2699.51,3630.72Z" transform="translate(-2574.16 -3457.25)"/>
  <path id="Layer-2" data-name="Layer" class="cls-2" d="M2631.48,3550.92l20.54,20.62,35.94-38.67" transform="translate(-2574.16 -3457.25)"/>
</svg>
