<svg xmlns="http://www.w3.org/2000/svg" width="277" height="93" viewBox="0 0 277 93">
  <defs>
    <style>
      .cls-1 {
        fill: #003f26;
      }

      .cls-1, .cls-2 {
        fill-rule: evenodd;
      }

      .cls-2 {
        fill: #f2ac4a;
      }
    </style>
  </defs>
  <g>
    <path id="Layer_11" data-name="Layer 11" class="cls-1" d="M1672.47,1408.23c0,5.85,4.56,10.05,14.13,10.05,9.61,0,14.17-4.2,14.17-10.05,0-5.89-4.56-10.09-14.17-10.09-9.57,0-14.13,4.2-14.13,10.09m-5.96,0c0-8.78,6.9-15.41,20.13-15.41s20.13,6.63,20.13,15.41-6.89,15.4-20.13,15.4-20.13-6.62-20.13-15.4m80.73,15.02v-5.83h-26v-24.13h-5.91v29.96h31.91Zm42.23,0v-5.83h-28.06v-6.28h24.5v-5.83h-24.5v-6.2h28.06v-5.82H1755.5v29.96h33.97Zm45.43-29.96h-8.49l-11.46,10.95-11.45-10.95h-8.49l15.7,15.01-15.64,14.95h8.49l11.39-10.89,11.4,10.89h8.48l-15.63-14.95Z" transform="translate(-1572 -1348)"/>
    <path id="Layer_13" data-name="Layer 13" class="cls-1" d="M1843.93,1397.1h0.82a0.7,0.7,0,0,0,.37-0.08,0.558,0.558,0,0,0,.25-0.23,0.635,0.635,0,0,0,.08-0.34,0.613,0.613,0,0,0-.08-0.34,0.619,0.619,0,0,0-.25-0.23,0.81,0.81,0,0,0-.37-0.08h-0.82v1.3Zm-0.78,2.24v-4.22h1.6a1.889,1.889,0,0,1,.77.15,1.317,1.317,0,0,1,.53.46,1.377,1.377,0,0,1,.19.72,1.27,1.27,0,0,1-.22.74,1.207,1.207,0,0,1-.56.46l0.98,1.69h-0.88l-1.06-1.85,0.51,0.29h-1.08v1.56h-0.78Zm1.49-5.72a3.635,3.635,0,1,0,3.69,3.63,3.662,3.662,0,0,0-3.69-3.63m0,7.94a4.305,4.305,0,1,1,4.36-4.31,4.343,4.343,0,0,1-4.36,4.31" transform="translate(-1572 -1348)"/>
  </g>
  <path id="Layer_7" data-name="Layer 7" class="cls-2" d="M1616.57,1419.75a85.942,85.942,0,0,0-22.27,2.61,25.214,25.214,0,0,0-7.19,3.02l-4.55-31.34,11.94,10.47,2.72-23.25,11.05,19.6,8.37-27.55,8.36,27.55,11.05-19.6,2.73,23.25,11.93-10.47-4.56,31.42c-5.26-3.39-16.9-5.71-29.58-5.71m21.03,10.11c-5.15-2.33-14.45-2.83-19.04-2.93v-3.18a79.407,79.407,0,0,1,19.35,2.55Zm-21.03,7.16c-18.6,0-28.75-4.39-28.75-6.64,0-2.18,9.43-6.33,26.77-6.63v7.14h1.98c11.6,0,18.56,1.86,20.38,3.07-1.82,1.2-8.78,3.06-20.38,3.06m39.62-53.08-14.35,12.59-3.26-27.84-12.47,22.12-9.47-31.17-9.47,31.17-12.48-22.12-3.26,27.84-14.35-12.59,6.78,46.71c0.18,3.24,3.69,5.85,10.44,7.75a85.975,85.975,0,0,0,22.27,2.6c4.09,0,24.31-.34,24.66-6.88h0.01l0.54-6.51a56.906,56.906,0,0,1,7.53,3.74l0.1-.69Zm-39.55-24.3-4.09-5.82,4.09-5.82,4.09,5.82Zm21.93,9.08-2.53-5.77,4.57-4.33,2.53,5.76Zm17.64,15.19-0.66-5.62,5.07-2.51,0.66,5.62Zm-61.51-15.19,2.54-5.77-4.57-4.33-2.54,5.76Zm-17.63,15.19,0.65-5.62-5.07-2.51-0.65,5.62Z" transform="translate(-1572 -1348)"/>
</svg>
